<?xml version="1.0" standalone="no"?>
<!DOCTYPE svg PUBLIC "-//W3C//DTD SVG 20010904//EN"
 "http://www.w3.org/TR/2001/REC-SVG-20010904/DTD/svg10.dtd">
<svg version="1.0" xmlns="http://www.w3.org/2000/svg"
 width="327.000000pt" height="310.000000pt" viewBox="0 0 327.000000 310.000000"
 preserveAspectRatio="xMidYMid meet">

<g transform="translate(0.000000,310.000000) scale(0.100000,-0.100000)"
fill="#000000" stroke="none">
<path d="M0 1550 l0 -1550 1635 0 1635 0 0 1550 0 1550 -1635 0 -1635 0 0
-1550z m2363 1384 c150 -34 341 -140 480 -264 172 -155 328 -409 378 -615 23
-98 25 -272 4 -363 -35 -149 -127 -327 -231 -448 -24 -29 -44 -56 -44 -61 0
-5 29 -37 65 -73 35 -35 67 -76 70 -91 9 -40 -19 -88 -62 -106 -59 -24 -99
-10 -168 58 l-61 59 -54 -46 c-30 -26 -90 -73 -133 -106 l-77 -59 55 -81 c35
-51 55 -91 55 -109 0 -43 -46 -89 -96 -96 -58 -7 -94 15 -149 92 -26 36 -50
65 -55 65 -4 0 -52 -26 -107 -58 -54 -32 -126 -74 -160 -93 -35 -18 -63 -37
-63 -42 0 -4 18 -36 40 -71 49 -78 53 -120 12 -159 -35 -33 -79 -43 -127 -27
-30 10 -47 27 -91 96 -30 46 -57 84 -62 84 -4 0 -53 -9 -110 -20 -56 -11 -116
-20 -132 -20 -40 0 -43 -11 -20 -65 24 -55 25 -77 6 -114 -17 -32 -54 -51
-102 -51 -63 0 -89 22 -124 107 -18 43 -37 84 -42 91 -7 8 -41 12 -102 12 -50
0 -136 7 -190 15 -135 20 -126 23 -126 -35 0 -72 -20 -113 -65 -134 -48 -23
-99 -16 -136 20 -27 26 -28 31 -31 137 l-3 110 -88 55 c-168 103 -282 231
-373 417 -118 243 -152 486 -93 667 25 76 58 130 118 191 113 117 261 172 516
192 220 17 392 96 552 253 33 32 75 81 93 108 232 340 457 524 710 578 90 20
236 19 323 0z"/>
<path d="M2083 2735 c-173 -47 -352 -197 -522 -438 -169 -239 -385 -401 -622
-467 -41 -11 -128 -25 -194 -31 -159 -13 -240 -31 -311 -67 -123 -63 -166
-139 -172 -308 -3 -89 0 -128 16 -192 72 -284 251 -501 492 -599 218 -88 564
-96 935 -22 90 18 117 29 263 110 549 300 886 611 996 917 65 182 49 376 -45
566 -136 274 -379 479 -628 532 -82 17 -141 17 -208 -1z m68 -371 c22 -21 29
-37 29 -67 0 -32 -8 -46 -48 -89 -45 -47 -53 -51 -104 -56 -50 -4 -58 -2 -88
25 -60 54 -35 135 61 201 46 32 108 26 150 -14z m-348 -215 c34 -18 57 -51 57
-86 0 -18 5 -56 11 -85 32 -150 124 -235 297 -277 121 -29 142 -46 142 -114 0
-27 -7 -41 -31 -61 -44 -37 -68 -40 -160 -21 -209 42 -351 138 -424 289 -36
74 -65 188 -65 258 0 32 7 47 34 74 28 28 42 34 76 34 23 0 51 -5 63 -11z
m760 -190 c48 -25 67 -51 67 -92 0 -35 -7 -47 -53 -94 -51 -50 -57 -53 -105
-53 -43 0 -57 5 -84 29 -46 41 -44 85 7 143 63 71 118 93 168 67z"/>
</g>
</svg>
