<svg id="svg" version="1.1" xmlns="http://www.w3.org/2000/svg" xmlns:xlink="http://www.w3.org/1999/xlink" width="400" height="379.20489296636083" viewBox="0, 0, 400,379.20489296636083"><g id="svgg"><path id="path0" d="M265.275 18.830 C 254.596 19.779,240.738 22.806,235.104 25.420 C 234.687 25.614,233.235 26.226,231.879 26.780 C 217.947 32.473,199.643 46.392,187.246 60.721 C 186.433 61.660,185.677 62.514,185.566 62.619 C 184.303 63.801,179.100 70.141,175.289 75.142 C 170.244 81.762,168.861 83.697,164.169 90.702 C 152.945 107.462,132.064 123.544,112.265 130.679 C 103.068 133.993,96.205 135.324,84.630 136.039 C 54.532 137.899,35.159 144.921,21.600 158.884 C 12.804 167.942,9.940 172.937,5.861 186.338 C 5.511 187.486,5.074 189.492,4.890 190.797 C 4.705 192.102,4.389 194.322,4.187 195.731 C 3.708 199.073,3.721 213.427,4.207 217.078 C 4.415 218.643,4.724 221.205,4.893 222.770 C 5.764 230.846,10.880 247.711,15.828 258.824 C 28.281 286.792,45.464 305.163,72.198 319.091 C 75.091 320.598,74.932 319.786,75.142 334.118 L 75.332 347.059 76.378 348.838 C 81.456 357.476,95.949 357.130,100.442 348.264 C 101.353 346.466,101.397 346.066,101.456 339.050 C 101.534 329.857,101.763 329.532,107.149 330.968 C 114.981 333.057,135.118 335.069,148.440 335.094 C 154.724 335.106,154.646 335.059,156.573 340.038 C 157.340 342.021,158.289 344.360,158.680 345.235 C 159.072 346.111,159.393 346.986,159.393 347.179 C 159.393 348.818,162.977 355.587,164.689 357.181 C 172.855 364.788,187.213 360.041,187.270 349.715 C 187.285 346.889,185.349 340.088,184.028 338.327 C 182.475 336.257,182.550 333.393,184.167 333.023 C 185.057 332.818,196.336 331.145,201.111 330.509 C 202.661 330.302,204.086 330.036,204.278 329.917 C 204.470 329.798,206.105 329.467,207.911 329.180 C 209.718 328.894,212.777 328.375,214.709 328.028 C 219.449 327.175,220.130 327.725,225.244 336.526 C 231.524 347.334,234.985 350.113,242.117 350.072 C 251.190 350.021,257.276 343.188,254.773 335.863 C 254.105 333.907,253.134 332.281,247.154 323.095 C 243.824 317.982,243.883 317.723,248.956 315.086 C 253.316 312.821,257.587 310.477,260.658 308.664 C 262.188 307.760,263.491 307.021,263.554 307.021 C 263.663 307.021,273.612 301.317,274.763 300.594 C 278.690 298.128,285.511 294.130,286.124 293.935 C 287.130 293.616,288.236 294.752,291.271 299.219 C 300.420 312.687,301.168 313.283,308.918 313.283 C 319.570 313.283,326.044 303.777,320.378 296.457 C 319.786 295.692,318.893 294.383,318.394 293.548 C 317.894 292.713,317.309 291.829,317.092 291.583 C 316.875 291.336,316.101 290.262,315.370 289.196 C 314.639 288.129,313.077 285.919,311.899 284.284 C 308.030 278.916,307.986 279.179,313.401 275.251 C 315.632 273.633,318.332 271.623,319.401 270.785 C 320.470 269.946,322.434 268.413,323.765 267.377 C 327.340 264.597,331.221 261.391,336.304 257.021 C 342.116 252.025,341.221 251.846,348.757 259.504 C 353.236 264.056,355.546 266.118,356.839 266.720 C 366.234 271.096,376.647 265.847,376.647 256.736 C 376.647 252.523,376.267 251.950,367.592 243.074 C 359.325 234.617,359.209 234.390,361.759 231.713 C 367.232 225.969,377.772 210.972,382.048 202.846 C 382.487 202.011,383.349 200.389,383.963 199.241 C 384.577 198.093,385.719 195.702,386.501 193.928 C 387.282 192.154,388.151 190.190,388.430 189.564 C 390.959 183.893,394.585 169.910,395.428 162.571 C 396.419 153.958,396.350 148.495,395.112 137.381 C 394.459 131.522,390.448 116.555,388.245 111.765 C 388.053 111.347,387.516 110.066,387.051 108.918 C 379.955 91.410,361.339 65.492,346.770 52.838 C 327.696 36.271,307.052 24.987,288.273 20.864 C 281.874 19.459,270.009 18.410,265.275 18.830 M276.281 42.870 C 281.250 43.587,290.523 46.169,294.687 47.995 C 305.043 52.535,316.280 59.335,323.842 65.637 C 330.947 71.560,333.134 73.767,339.889 81.835 C 347.886 91.386,356.724 105.457,360.476 114.611 C 360.946 115.759,361.489 117.040,361.683 117.457 C 367.447 129.888,369.867 149.946,367.362 164.516 C 366.243 171.021,362.866 182.341,361.594 183.852 C 361.427 184.050,361.290 184.451,361.290 184.743 C 361.290 187.796,347.780 209.584,341.711 216.319 C 341.240 216.841,339.536 218.805,337.924 220.683 C 334.432 224.751,326.600 232.578,321.063 237.532 C 314.860 243.082,314.593 243.314,311.573 245.731 C 310.009 246.983,308.540 248.178,308.310 248.387 C 302.472 253.684,277.902 270.758,266.224 277.632 C 264.137 278.861,262.343 279.965,262.239 280.086 C 262.041 280.315,260.332 281.366,258.065 282.652 C 257.334 283.066,254.506 284.675,251.780 286.226 C 249.054 287.778,246.578 289.166,246.277 289.310 C 245.977 289.455,245.047 289.969,244.213 290.453 C 237.469 294.360,222.178 302.336,220.213 302.972 C 218.153 303.638,215.836 304.174,208.539 305.674 C 205.746 306.248,197.738 307.622,189.753 308.898 C 187.144 309.315,183.131 309.850,180.835 310.087 C 178.539 310.324,176.554 310.582,176.423 310.660 C 175.700 311.094,157.488 312.011,149.526 312.014 C 103.585 312.034,72.120 298.258,51.369 269.039 C 44.098 258.800,37.279 244.279,33.918 231.879 C 33.607 230.731,33.096 228.852,32.783 227.704 C 31.119 221.601,30.188 211.758,30.522 203.795 C 31.478 180.990,42.568 167.676,65.285 162.063 C 67.054 161.626,69.099 161.104,69.829 160.903 C 70.560 160.703,72.524 160.361,74.194 160.143 C 75.863 159.925,78.340 159.591,79.696 159.400 C 81.053 159.209,84.235 159.043,86.767 159.033 C 91.406 159.013,101.413 157.776,107.021 156.529 C 108.586 156.180,110.581 155.751,111.453 155.573 C 112.326 155.396,113.948 154.971,115.059 154.628 C 120.444 152.965,124.395 151.664,125.427 151.213 C 126.053 150.939,128.188 150.030,130.171 149.193 C 134.375 147.417,142.012 143.524,144.884 141.693 C 145.984 140.991,146.973 140.417,147.082 140.417 C 147.354 140.417,159.023 132.017,160.384 130.841 C 174.610 118.555,181.275 111.401,188.037 101.158 C 191.669 95.655,194.976 91.130,200.532 84.061 C 203.210 80.654,203.941 79.803,208.203 75.142 C 209.444 73.786,210.966 72.099,211.586 71.395 C 223.060 58.358,245.107 45.047,258.824 42.876 C 261.170 42.505,273.720 42.500,276.281 42.870 M248.153 87.411 C 244.564 88.746,236.390 96.636,234.643 100.452 C 230.947 108.526,239.328 117.347,249.173 115.745 C 256.405 114.568,266.414 104.299,266.414 98.056 C 266.414 90.548,256.015 84.487,248.153 87.411 M209.955 115.935 C 206.169 116.999,203.433 119.038,201.592 122.169 C 200.396 124.203,200.215 134.135,201.294 138.472 C 201.586 139.646,201.940 141.461,202.080 142.505 C 204.060 157.209,214.578 173.599,227.514 182.135 C 234.845 186.971,246.366 191.858,254.391 193.533 C 268.353 196.448,270.967 196.608,274.863 194.784 C 282.671 191.131,284.582 183.016,278.993 177.240 C 276.423 174.584,274.746 173.870,268.691 172.854 C 263.768 172.028,256.621 170.004,253.331 168.506 C 252.409 168.086,251.574 167.742,251.475 167.742 C 251.025 167.742,243.567 163.126,242.884 162.424 C 242.780 162.316,241.796 161.488,240.697 160.582 C 232.723 154.006,226.945 140.288,226.945 127.935 C 226.945 119.555,218.443 113.551,209.955 115.935 M302.467 140.662 C 299.447 141.889,291.399 149.805,289.752 153.169 C 285.324 162.213,296.835 171.963,307.211 167.957 C 310.893 166.535,318.445 159.248,320.315 155.312 C 324.869 145.725,313.327 136.251,302.467 140.662 " stroke="none" fill="#f8f8f8" fill-rule="evenodd"></path><path id="path1" d="M0.000 189.753 L 0.000 379.507 200.000 379.507 L 400.000 379.507 400.000 189.753 L 400.000 0.000 200.000 0.000 L 0.000 0.000 0.000 189.753 M281.025 18.011 C 286.344 18.737,291.487 19.862,295.768 21.234 C 301.168 22.965,303.086 23.647,303.397 23.944 C 303.595 24.133,303.979 24.288,304.249 24.288 C 305.089 24.288,316.306 29.606,320.031 31.769 C 336.112 41.112,350.067 52.509,360.591 64.896 C 362.985 67.713,366.595 72.239,368.612 74.953 C 370.630 77.666,372.416 80.057,372.581 80.266 C 373.703 81.685,378.339 89.021,380.614 92.979 C 382.114 95.588,383.496 97.979,383.685 98.292 C 384.181 99.113,386.276 103.446,387.355 105.882 C 387.863 107.030,388.430 108.311,388.616 108.729 C 388.802 109.146,389.320 110.427,389.768 111.575 C 390.217 112.723,390.741 114.062,390.935 114.551 C 391.506 115.992,392.641 119.528,393.514 122.581 C 393.962 124.146,394.511 125.998,394.735 126.697 C 394.959 127.395,395.285 128.846,395.460 129.922 C 395.635 130.998,395.949 132.647,396.157 133.586 C 398.023 142.004,398.013 161.061,396.138 168.880 C 395.912 169.820,395.570 171.528,395.378 172.676 C 395.185 173.824,394.865 174.925,394.667 175.123 C 394.469 175.322,394.307 175.807,394.307 176.203 C 394.307 177.089,392.911 181.921,392.184 183.549 C 391.891 184.207,391.651 185.070,391.651 185.469 C 391.651 185.867,391.400 186.524,391.094 186.929 C 390.787 187.335,390.531 187.889,390.524 188.161 C 390.518 188.434,390.195 189.373,389.807 190.249 C 389.419 191.124,388.864 192.435,388.574 193.163 C 386.971 197.173,382.226 205.869,377.415 213.613 C 376.197 215.574,373.103 219.963,371.628 221.822 C 371.463 222.030,370.141 223.738,368.691 225.617 C 367.242 227.495,365.069 230.217,363.863 231.664 C 361.127 234.948,360.517 233.654,368.786 242.102 C 376.996 250.490,378.010 251.981,378.283 256.064 C 378.824 264.140,371.417 270.470,362.319 269.707 C 356.945 269.257,354.956 268.018,347.599 260.541 C 344.616 257.509,341.905 255.028,341.575 255.028 C 341.245 255.028,338.742 256.950,336.012 259.298 C 333.282 261.646,329.215 265.019,326.974 266.793 C 324.733 268.567,322.529 270.336,322.076 270.724 C 321.623 271.112,320.142 272.219,318.786 273.185 C 317.429 274.150,316.148 275.076,315.939 275.242 C 315.731 275.409,314.624 276.229,313.480 277.066 C 310.113 279.527,309.781 278.462,317.247 289.184 C 322.879 297.271,323.031 297.531,323.510 299.856 C 325.269 308.390,318.426 315.242,308.469 314.918 C 301.301 314.684,299.511 313.559,294.097 305.882 C 285.594 293.826,287.161 294.740,281.290 298.415 C 278.848 299.943,275.832 301.750,274.588 302.430 C 273.344 303.111,271.866 303.995,271.304 304.395 C 270.741 304.796,270.173 305.123,270.040 305.123 C 269.907 305.123,269.336 305.441,268.770 305.828 C 267.514 306.689,261.080 310.315,255.408 313.359 C 245.266 318.801,245.929 318.225,247.322 320.384 C 247.899 321.279,248.546 322.296,248.759 322.643 C 249.172 323.317,251.541 327.157,252.194 328.211 C 252.409 328.558,253.228 329.828,254.014 331.033 C 259.033 338.730,257.124 346.329,249.192 350.234 C 241.189 354.174,232.459 351.168,227.514 342.770 C 227.306 342.415,226.443 341.101,225.597 339.848 C 224.751 338.596,222.973 335.819,221.645 333.677 C 218.522 328.637,218.939 328.890,214.935 329.606 C 213.087 329.936,210.209 330.436,208.539 330.716 C 206.869 330.997,204.564 331.406,203.416 331.626 C 202.268 331.846,199.620 332.282,197.533 332.594 C 188.350 333.966,185.359 334.432,184.928 334.557 C 184.469 334.690,184.719 335.959,185.596 337.951 C 191.171 350.610,189.567 357.725,180.324 361.344 C 171.284 364.883,162.711 360.627,159.192 350.854 C 158.816 349.810,158.366 348.794,158.192 348.596 C 158.017 348.398,157.875 347.968,157.875 347.641 C 157.875 347.315,157.533 346.410,157.116 345.631 C 156.698 344.853,156.357 344.035,156.357 343.814 C 156.357 343.593,156.045 342.695,155.665 341.820 C 155.284 340.944,154.667 339.517,154.294 338.648 C 153.442 336.666,153.314 336.634,146.110 336.626 C 142.875 336.622,137.495 336.366,134.156 336.056 C 130.816 335.746,127.074 335.491,125.839 335.488 C 124.605 335.486,122.043 335.220,120.147 334.897 C 118.250 334.574,115.076 334.039,113.093 333.709 C 111.110 333.378,108.524 332.874,107.346 332.588 C 106.167 332.302,104.774 332.068,104.250 332.068 L 103.296 332.068 103.144 339.374 C 102.968 347.887,102.647 348.997,99.465 352.112 C 92.411 359.020,80.766 358.049,75.284 350.095 C 73.558 347.590,73.467 346.862,73.257 333.812 L 73.055 321.324 69.260 319.361 C 67.173 318.282,64.696 316.903,63.757 316.297 C 62.818 315.692,61.762 315.022,61.410 314.809 C 61.058 314.596,59.948 313.923,58.943 313.315 C 52.596 309.473,40.157 298.630,34.960 292.410 C 32.181 289.083,26.565 281.638,26.565 281.279 C 26.565 281.070,26.434 280.841,26.273 280.772 C 25.989 280.648,24.159 277.926,22.419 275.035 C 20.877 272.475,18.629 268.218,16.461 263.757 C 15.295 261.357,14.189 259.097,14.003 258.735 C 13.223 257.221,9.141 246.200,8.342 243.454 C 8.160 242.827,7.380 240.266,6.608 237.761 C 5.837 235.256,4.999 232.078,4.746 230.699 C 4.493 229.320,4.159 227.986,4.003 227.734 C 3.848 227.482,3.566 225.707,3.377 223.790 C 3.189 221.872,2.874 219.450,2.678 218.406 C 2.200 215.859,2.196 196.411,2.673 194.497 C 2.882 193.662,3.196 191.869,3.373 190.512 C 3.699 188.011,4.705 183.739,5.295 182.353 C 5.473 181.935,6.012 180.484,6.494 179.127 C 10.002 169.243,17.727 159.013,27.022 151.946 C 29.047 150.406,30.788 149.146,30.892 149.146 C 30.996 149.146,31.816 148.653,32.713 148.050 C 37.520 144.821,45.680 141.435,55.028 138.791 C 63.083 136.513,71.281 135.297,82.543 134.708 C 92.521 134.186,99.366 133.096,106.572 130.879 C 108.516 130.281,110.284 129.791,110.499 129.791 C 110.715 129.791,111.429 129.550,112.087 129.255 C 112.745 128.960,114.991 127.987,117.078 127.093 C 123.297 124.430,130.278 120.654,133.261 118.340 C 134.022 117.750,134.749 117.268,134.878 117.268 C 135.006 117.268,136.604 116.137,138.429 114.755 C 147.033 108.237,157.606 97.740,161.564 91.784 C 165.327 86.123,173.385 74.725,174.001 74.194 C 174.242 73.985,175.363 72.619,176.492 71.157 C 181.460 64.724,186.487 59.054,192.979 52.562 C 196.384 49.156,197.768 47.858,202.304 43.811 C 210.184 36.781,230.377 24.288,233.860 24.288 C 234.139 24.288,234.703 24.067,235.115 23.796 C 235.527 23.525,237.144 22.912,238.710 22.433 C 240.275 21.954,241.983 21.414,242.505 21.232 C 243.027 21.050,245.076 20.548,247.059 20.116 C 249.042 19.685,251.262 19.176,251.992 18.986 C 253.189 18.675,260.053 17.712,263.947 17.308 C 266.730 17.019,276.797 17.433,281.025 18.011 M259.962 44.366 C 252.505 45.212,241.657 49.775,232.068 56.099 C 230.218 57.320,224.551 61.529,224.288 61.879 C 224.184 62.017,222.989 63.039,221.632 64.148 C 215.188 69.419,205.611 79.836,197.898 89.962 C 193.983 95.102,186.338 106.060,186.338 106.531 C 186.338 106.746,183.988 109.639,181.973 111.906 C 173.088 121.900,166.678 127.888,156.322 135.863 C 150.000 140.732,138.484 147.476,132.068 150.067 C 130.712 150.615,129.272 151.250,128.868 151.479 C 128.465 151.708,127.697 152.032,127.161 152.200 C 126.625 152.368,125.247 152.874,124.099 153.325 C 122.951 153.776,121.499 154.286,120.873 154.459 C 120.247 154.631,119.222 154.942,118.596 155.151 C 108.785 158.415,99.186 160.022,86.431 160.536 C 81.890 160.719,77.988 160.983,77.761 161.124 C 77.534 161.264,75.785 161.606,73.874 161.884 C 70.284 162.406,66.588 163.176,63.947 163.952 C 61.485 164.676,58.063 165.844,57.375 166.196 C 57.024 166.376,55.370 167.163,53.700 167.945 C 52.030 168.727,49.930 169.855,49.032 170.452 C 48.135 171.049,47.309 171.537,47.199 171.537 C 47.088 171.537,46.207 172.177,45.241 172.960 C 34.013 182.059,29.530 200.213,33.174 221.822 C 33.703 224.959,33.977 226.127,35.491 231.689 C 36.076 233.839,37.083 236.806,37.827 238.577 C 38.104 239.235,38.330 239.955,38.330 240.177 C 38.330 240.400,38.570 241.142,38.862 241.828 C 39.155 242.513,40.296 245.209,41.397 247.818 C 43.514 252.834,46.777 259.367,47.667 260.371 C 47.959 260.701,48.197 261.094,48.197 261.245 C 48.197 261.537,51.255 266.234,53.909 270.019 C 55.836 272.767,59.901 277.411,63.545 281.027 C 72.243 289.661,83.746 297.154,95.256 301.686 C 96.404 302.138,97.685 302.666,98.102 302.860 C 98.520 303.054,99.545 303.381,100.380 303.586 C 101.214 303.792,104.630 304.656,107.970 305.505 C 111.309 306.354,114.725 307.220,115.560 307.429 C 116.395 307.638,118.529 307.980,120.304 308.188 C 122.078 308.396,124.042 308.744,124.668 308.961 C 125.294 309.179,128.197 309.503,131.120 309.683 C 134.042 309.863,139.300 310.220,142.804 310.476 C 147.856 310.846,150.684 310.845,156.466 310.472 C 160.476 310.213,166.319 309.851,169.450 309.668 C 172.581 309.484,176.509 309.076,178.178 308.760 C 179.848 308.444,182.064 308.180,183.103 308.173 C 184.142 308.165,186.277 307.912,187.847 307.610 C 189.417 307.308,191.983 306.876,193.548 306.650 C 197.181 306.127,202.981 305.083,211.575 303.407 C 220.090 301.746,219.450 301.970,226.992 297.996 C 229.001 296.937,232.331 295.183,234.393 294.098 C 239.005 291.671,242.192 289.931,242.694 289.568 C 242.903 289.417,244.056 288.756,245.256 288.100 C 250.275 285.356,251.927 284.420,254.233 283.013 C 255.569 282.198,257.021 281.371,257.459 281.176 C 257.896 280.981,260.133 279.641,262.429 278.199 C 264.725 276.758,267.799 274.854,269.260 273.969 C 273.920 271.146,284.225 264.369,288.425 261.365 C 289.364 260.693,291.328 259.295,292.789 258.258 C 294.250 257.221,295.638 256.199,295.874 255.985 C 296.109 255.772,296.687 255.342,297.157 255.028 C 298.524 254.119,306.433 248.075,306.641 247.781 C 306.746 247.634,307.848 246.724,309.091 245.760 C 318.910 238.137,333.176 224.268,341.130 214.611 C 348.162 206.074,355.692 194.153,358.871 186.528 C 359.393 185.275,360.048 183.738,360.328 183.112 C 360.607 182.486,361.112 181.120,361.451 180.076 C 361.790 179.032,362.217 177.837,362.402 177.419 C 367.503 165.860,368.165 141.918,363.755 128.463 C 363.481 127.628,362.887 125.750,362.434 124.288 C 361.981 122.827,361.368 121.094,361.071 120.436 C 360.774 119.778,360.531 118.977,360.531 118.656 C 360.531 118.334,360.379 117.978,360.194 117.863 C 360.008 117.748,359.741 117.193,359.599 116.630 C 358.248 111.247,343.398 87.023,339.284 83.491 C 339.162 83.387,338.710 82.842,338.279 82.279 C 334.923 77.902,328.639 71.467,324.466 68.136 C 322.907 66.892,321.575 65.740,321.505 65.575 C 321.436 65.410,321.219 65.275,321.023 65.275 C 320.827 65.275,319.603 64.445,318.303 63.429 C 311.737 58.302,298.332 50.626,293.359 49.146 C 292.837 48.991,292.239 48.733,292.030 48.574 C 291.822 48.415,291.053 48.160,290.323 48.008 C 289.592 47.855,288.824 47.607,288.615 47.456 C 288.406 47.305,286.698 46.802,284.820 46.339 C 282.941 45.876,280.385 45.240,279.140 44.925 C 276.566 44.275,263.993 43.908,259.962 44.366 M259.373 86.345 C 266.773 89.845,269.838 96.990,266.646 103.297 C 265.307 105.945,257.867 113.739,255.218 115.269 C 243.586 121.989,228.711 112.235,232.823 100.583 C 234.038 97.139,242.020 88.808,246.092 86.733 C 249.653 84.919,255.969 84.735,259.373 86.345 M218.287 114.602 C 225.398 116.798,228.272 121.117,228.851 130.478 C 229.868 146.923,237.045 158.445,250.653 165.478 C 255.426 167.945,263.490 170.534,268.338 171.156 C 279.795 172.626,285.902 179.623,283.207 188.194 C 280.850 195.689,272.472 198.876,261.101 196.603 C 237.022 191.789,220.159 182.071,210.502 167.442 C 207.916 163.525,203.795 155.570,203.795 154.495 C 203.795 154.142,203.645 153.690,203.462 153.491 C 202.810 152.787,201.527 147.878,199.994 140.228 C 199.333 136.929,198.824 128.516,199.097 125.427 C 199.810 117.380,209.531 111.897,218.287 114.602 M313.494 138.908 C 322.529 142.469,325.634 151.104,320.451 158.254 C 318.816 160.511,311.741 167.422,310.057 168.409 C 300.517 174.000,287.379 167.586,287.311 157.306 C 287.283 153.005,287.969 151.907,295.868 143.611 C 300.670 138.568,307.802 136.664,313.494 138.908 " stroke="none" fill="#1c1c1c" fill-rule="evenodd"></path><path id="path2" d="M262.049 18.452 C 254.466 19.260,242.333 21.891,237.951 23.678 C 237.220 23.975,235.598 24.603,234.345 25.073 C 230.436 26.538,221.883 30.939,217.394 33.795 C 206.339 40.829,197.307 48.747,185.367 61.875 C 179.142 68.719,171.559 78.676,163.268 90.892 C 146.390 115.762,114.671 134.065,86.338 135.286 C 64.319 136.234,46.121 140.862,33.120 148.819 C 1.650 168.081,-5.610 206.406,13.178 254.080 C 24.432 282.634,43.457 304.505,68.768 317.983 C 74.935 321.267,74.325 319.514,74.459 334.354 C 74.569 346.605,74.603 347.115,75.408 348.620 C 80.389 357.930,96.086 357.910,101.080 348.586 C 101.823 347.198,101.909 346.377,102.020 339.597 C 102.178 330.068,101.775 330.572,108.197 331.861 C 119.473 334.125,126.266 334.840,142.884 335.512 C 155.608 336.026,153.947 335.006,157.654 344.592 C 161.584 354.756,162.428 356.351,164.883 358.245 C 174.330 365.533,189.239 359.236,188.111 348.436 C 187.974 347.126,186.982 344.040,185.551 340.473 C 182.693 333.343,182.455 333.793,189.601 332.822 C 199.536 331.471,206.719 330.273,212.571 328.991 C 219.227 327.532,218.441 327.017,224.898 337.079 C 230.488 345.790,232.310 347.990,235.008 349.291 C 244.547 353.891,255.787 348.231,255.787 338.827 C 255.787 335.526,255.575 335.047,250.855 327.704 C 245.544 319.442,245.467 319.305,245.607 318.395 C 245.689 317.865,246.501 317.176,248.008 316.358 C 259.669 310.028,273.763 301.982,280.633 297.731 C 287.262 293.630,286.610 293.407,292.263 301.708 C 297.240 309.016,298.361 310.447,299.987 311.566 C 309.294 317.969,322.750 312.478,322.750 302.277 C 322.750 298.980,322.199 297.780,317.874 291.651 C 310.685 281.464,309.604 279.766,309.854 279.060 C 309.989 278.679,312.771 276.404,316.037 274.004 C 323.172 268.760,330.283 263.098,336.386 257.801 C 338.866 255.650,341.208 253.890,341.592 253.890 C 341.992 253.890,344.935 256.562,348.470 260.134 C 355.217 266.952,356.577 267.861,361.275 268.696 C 370.727 270.378,379.373 262.443,377.079 254.192 C 376.211 251.071,375.243 249.846,367.544 242.125 C 359.724 234.284,359.895 234.753,363.400 230.740 C 403.595 184.714,407.281 133.013,373.872 83.871 C 367.706 74.802,354.858 58.901,351.325 55.966 C 350.648 55.404,349.412 54.323,348.577 53.563 C 330.034 36.690,305.293 23.257,286.571 19.897 C 284.773 19.574,282.362 19.138,281.214 18.928 C 279.033 18.528,264.679 18.172,262.049 18.452 M280.304 19.563 C 301.701 22.169,324.738 33.702,346.770 52.838 C 361.339 65.492,379.955 91.410,387.051 108.918 C 387.516 110.066,388.053 111.347,388.245 111.765 C 390.448 116.555,394.459 131.522,395.112 137.381 C 396.891 153.351,396.413 161.114,392.718 176.281 C 391.955 179.412,389.328 187.551,388.430 189.564 C 388.151 190.190,387.282 192.154,386.501 193.928 C 385.719 195.702,384.577 198.093,383.963 199.241 C 383.349 200.389,382.487 202.011,382.048 202.846 C 377.772 210.972,367.232 225.969,361.759 231.713 C 359.209 234.390,359.325 234.617,367.592 243.074 C 376.267 251.950,376.647 252.523,376.647 256.736 C 376.647 265.847,366.234 271.096,356.839 266.720 C 355.546 266.118,353.236 264.056,348.757 259.504 C 341.221 251.846,342.116 252.025,336.304 257.021 C 331.221 261.391,327.340 264.597,323.765 267.377 C 322.434 268.413,320.470 269.946,319.401 270.785 C 318.332 271.623,315.632 273.633,313.401 275.251 C 307.986 279.179,308.030 278.916,311.899 284.284 C 313.077 285.919,314.639 288.129,315.370 289.196 C 316.101 290.262,316.875 291.336,317.092 291.583 C 317.309 291.829,317.894 292.713,318.394 293.548 C 318.893 294.383,319.786 295.692,320.378 296.457 C 326.044 303.777,319.570 313.283,308.918 313.283 C 301.168 313.283,300.420 312.687,291.271 299.219 C 288.236 294.752,287.130 293.616,286.124 293.935 C 285.511 294.130,278.690 298.128,274.763 300.594 C 273.612 301.317,263.663 307.021,263.554 307.021 C 263.491 307.021,262.188 307.760,260.658 308.664 C 257.587 310.477,253.316 312.821,248.956 315.086 C 243.883 317.723,243.824 317.982,247.154 323.095 C 253.134 332.281,254.105 333.907,254.773 335.863 C 258.739 347.469,239.747 355.823,231.738 345.996 C 230.583 344.580,226.262 338.277,225.244 336.526 C 220.130 327.725,219.449 327.175,214.709 328.028 C 212.777 328.375,209.718 328.894,207.911 329.180 C 206.105 329.467,204.470 329.798,204.278 329.917 C 204.086 330.036,202.661 330.302,201.111 330.509 C 196.336 331.145,185.057 332.818,184.167 333.023 C 182.550 333.393,182.475 336.257,184.028 338.327 C 185.349 340.088,187.285 346.889,187.270 349.715 C 187.213 360.041,172.855 364.788,164.689 357.181 C 162.977 355.587,159.393 348.818,159.393 347.179 C 159.393 346.986,159.072 346.111,158.680 345.235 C 158.289 344.360,157.340 342.021,156.573 340.038 C 154.646 335.059,154.724 335.106,148.440 335.094 C 135.118 335.069,114.981 333.057,107.149 330.968 C 101.763 329.532,101.534 329.857,101.456 339.050 C 101.397 346.066,101.353 346.466,100.442 348.264 C 95.949 357.130,81.456 357.476,76.378 348.838 L 75.332 347.059 75.142 334.118 C 74.932 319.786,75.091 320.598,72.198 319.091 C 58.479 311.944,49.920 305.733,40.592 296.157 C 24.032 279.155,12.355 256.395,5.862 228.463 C 5.498 226.898,5.062 224.336,4.893 222.770 C 4.724 221.205,4.415 218.643,4.207 217.078 C 3.721 213.427,3.708 199.073,4.187 195.731 C 4.389 194.322,4.705 192.102,4.890 190.797 C 5.769 184.584,9.481 174.817,13.097 169.200 C 26.380 148.571,48.610 138.265,84.630 136.039 C 101.763 134.981,115.007 131.057,128.889 122.928 C 142.250 115.104,156.614 101.984,164.169 90.702 C 168.861 83.697,170.244 81.762,175.289 75.142 C 179.100 70.141,184.303 63.801,185.566 62.619 C 185.677 62.514,186.433 61.660,187.246 60.721 C 199.643 46.392,217.947 32.473,231.879 26.780 C 233.235 26.226,234.687 25.614,235.104 25.420 C 240.738 22.806,254.596 19.779,265.275 18.830 C 267.949 18.593,275.264 18.950,280.304 19.563 M258.824 42.876 C 245.107 45.047,223.060 58.358,211.586 71.395 C 210.966 72.099,209.444 73.786,208.203 75.142 C 203.941 79.803,203.210 80.654,200.532 84.061 C 194.976 91.130,191.669 95.655,188.037 101.158 C 181.275 111.401,174.610 118.555,160.384 130.841 C 159.023 132.017,147.354 140.417,147.082 140.417 C 146.973 140.417,145.984 140.991,144.884 141.693 C 142.012 143.524,134.375 147.417,130.171 149.193 C 128.188 150.030,126.053 150.939,125.427 151.213 C 124.395 151.664,120.444 152.965,115.059 154.628 C 113.948 154.971,112.326 155.396,111.453 155.573 C 110.581 155.751,108.586 156.180,107.021 156.529 C 101.413 157.776,91.406 159.013,86.767 159.033 C 84.235 159.043,81.053 159.209,79.696 159.400 C 78.340 159.591,75.863 159.925,74.194 160.143 C 72.524 160.361,70.560 160.703,69.829 160.903 C 69.099 161.104,67.054 161.626,65.285 162.063 C 42.568 167.676,31.478 180.990,30.522 203.795 C 30.188 211.758,31.119 221.601,32.783 227.704 C 33.096 228.852,33.607 230.731,33.918 231.879 C 45.740 275.503,76.736 303.202,121.442 310.095 C 135.228 312.220,173.172 312.610,176.423 310.660 C 176.554 310.582,178.539 310.324,180.835 310.087 C 183.131 309.850,187.144 309.315,189.753 308.898 C 197.738 307.622,205.746 306.248,208.539 305.674 C 215.836 304.174,218.153 303.638,220.213 302.972 C 222.178 302.336,237.469 294.360,244.213 290.453 C 245.047 289.969,245.977 289.455,246.277 289.310 C 246.578 289.166,249.054 287.778,251.780 286.226 C 254.506 284.675,257.334 283.066,258.065 282.652 C 260.332 281.366,262.041 280.315,262.239 280.086 C 262.343 279.965,264.137 278.861,266.224 277.632 C 277.902 270.758,302.472 253.684,308.310 248.387 C 308.540 248.178,310.009 246.983,311.573 245.731 C 314.593 243.314,314.860 243.082,321.063 237.532 C 326.600 232.578,334.432 224.751,337.924 220.683 C 339.536 218.805,341.240 216.841,341.711 216.319 C 347.780 209.584,361.290 187.796,361.290 184.743 C 361.290 184.451,361.427 184.050,361.594 183.852 C 362.449 182.837,365.179 174.549,366.400 169.260 C 369.893 154.141,368.710 136.355,363.222 121.442 C 362.569 119.668,361.876 117.875,361.683 117.457 C 361.489 117.040,360.946 115.759,360.476 114.611 C 354.516 100.069,338.984 78.506,327.324 68.586 C 323.223 65.097,323.266 65.131,318.908 61.968 C 310.069 55.554,304.180 52.157,294.687 47.995 C 290.523 46.169,281.250 43.587,276.281 42.870 C 273.720 42.500,261.170 42.505,258.824 42.876 M281.404 44.500 C 301.958 49.311,325.011 64.151,338.728 81.404 C 340.388 83.491,342.136 85.626,342.614 86.148 C 343.931 87.589,351.403 98.752,353.876 102.977 C 372.240 134.341,372.201 168.811,353.766 198.292 C 347.705 207.985,340.654 217.175,333.966 224.099 C 330.055 228.149,321.320 236.589,318.786 238.768 C 317.429 239.935,315.438 241.661,314.361 242.603 C 311.309 245.277,301.971 252.633,297.154 256.158 C 294.753 257.915,291.765 260.111,290.512 261.037 C 279.668 269.059,252.451 285.630,235.863 294.311 C 233.150 295.730,230.759 297.016,230.550 297.166 C 228.402 298.717,220.093 302.566,217.951 303.003 C 216.532 303.292,212.894 304.041,209.867 304.666 C 206.841 305.291,202.230 306.164,199.620 306.606 C 197.011 307.048,193.340 307.669,191.461 307.987 C 168.723 311.836,142.197 312.488,122.960 309.671 C 117.878 308.927,116.783 308.705,108.729 306.795 C 72.041 298.095,45.862 271.451,34.356 231.102 C 27.499 207.057,31.578 182.693,44.113 172.820 C 54.566 164.588,68.818 160.317,88.853 159.413 C 127.700 157.660,165.716 135.403,189.049 100.752 C 211.100 68.006,237.021 46.799,259.013 43.513 C 263.001 42.917,277.341 43.549,281.404 44.500 M249.123 86.480 C 245.289 87.476,236.841 94.954,234.291 99.611 C 228.811 109.615,242.446 120.598,253.510 115.091 C 257.241 113.234,264.245 106.215,265.888 102.687 C 270.146 93.542,259.937 83.673,249.123 86.480 M259.583 88.076 C 268.875 92.942,268.573 100.764,258.722 110.341 C 249.134 119.662,234.689 116.600,233.861 105.072 C 233.493 99.941,241.686 89.816,248.153 87.411 C 250.456 86.554,257.454 86.961,259.583 88.076 M208.403 115.728 C 201.746 118.191,199.842 121.618,200.103 130.663 C 201.128 166.106,224.240 189.915,263.553 196.027 C 268.852 196.851,272.401 196.651,275.163 195.371 C 287.153 189.816,284.495 174.842,271.134 172.673 C 243.358 168.164,227.724 152.394,227.706 128.867 C 227.698 118.829,217.952 112.195,208.403 115.728 M219.250 116.571 C 223.908 118.309,226.945 122.794,226.945 127.935 C 226.945 140.288,232.723 154.006,240.697 160.582 C 241.796 161.488,242.780 162.316,242.884 162.424 C 243.567 163.126,251.025 167.742,251.475 167.742 C 251.574 167.742,252.409 168.086,253.331 168.506 C 256.621 170.004,263.768 172.028,268.691 172.854 C 274.746 173.870,276.423 174.584,278.993 177.240 C 284.582 183.016,282.671 191.131,274.863 194.784 C 270.967 196.608,268.353 196.448,254.391 193.533 C 246.366 191.858,234.845 186.971,227.514 182.135 C 214.578 173.599,204.060 157.209,202.080 142.505 C 201.940 141.461,201.586 139.646,201.294 138.472 C 200.215 134.135,200.396 124.203,201.592 122.169 C 205.047 116.292,212.322 113.986,219.250 116.571 M303.790 139.582 C 299.550 141.048,291.242 148.596,289.085 152.941 C 284.103 162.977,297.875 173.300,308.963 167.842 C 313.896 165.413,321.646 156.088,322.103 152.030 C 323.034 143.770,312.462 136.583,303.790 139.582 M314.717 141.142 C 320.605 144.090,322.894 149.884,320.315 155.312 C 318.445 159.248,310.893 166.535,307.211 167.957 C 296.835 171.963,285.324 162.213,289.752 153.169 C 291.399 149.805,299.447 141.889,302.467 140.662 C 306.212 139.141,311.104 139.333,314.717 141.142 " stroke="none" fill="#949494" fill-rule="evenodd"></path><path id="path3" d="M263.947 17.308 C 260.053 17.712,253.189 18.675,251.992 18.986 C 251.262 19.176,249.042 19.685,247.059 20.116 C 245.076 20.548,243.027 21.050,242.505 21.232 C 241.983 21.414,240.275 21.954,238.710 22.433 C 237.144 22.912,235.527 23.525,235.115 23.796 C 234.703 24.067,234.139 24.288,233.860 24.288 C 230.377 24.288,210.184 36.781,202.304 43.811 C 197.768 47.858,196.384 49.156,192.979 52.562 C 186.487 59.054,181.460 64.724,176.492 71.157 C 175.363 72.619,174.242 73.985,174.001 74.194 C 173.385 74.725,165.327 86.123,161.564 91.784 C 157.606 97.740,147.033 108.237,138.429 114.755 C 136.604 116.137,135.006 117.268,134.878 117.268 C 134.749 117.268,134.022 117.750,133.261 118.340 C 130.278 120.654,123.297 124.430,117.078 127.093 C 114.991 127.987,112.745 128.960,112.087 129.255 C 111.429 129.550,110.715 129.791,110.499 129.791 C 110.284 129.791,108.516 130.281,106.572 130.879 C 99.366 133.096,92.521 134.186,82.543 134.708 C 71.281 135.297,63.083 136.513,55.028 138.791 C 45.680 141.435,37.520 144.821,32.713 148.050 C 31.816 148.653,30.996 149.146,30.892 149.146 C 30.788 149.146,29.047 150.406,27.022 151.946 C 17.727 159.013,10.002 169.243,6.494 179.127 C 6.012 180.484,5.473 181.935,5.295 182.353 C 4.705 183.739,3.699 188.011,3.373 190.512 C 3.196 191.869,2.882 193.662,2.673 194.497 C 2.196 196.411,2.200 215.859,2.678 218.406 C 2.874 219.450,3.189 221.872,3.377 223.790 C 3.566 225.707,3.848 227.482,4.003 227.734 C 4.159 227.986,4.493 229.320,4.746 230.699 C 4.999 232.078,5.837 235.256,6.608 237.761 C 7.380 240.266,8.160 242.827,8.342 243.454 C 9.141 246.200,13.223 257.221,14.003 258.735 C 14.189 259.097,15.295 261.357,16.461 263.757 C 18.629 268.218,20.877 272.475,22.419 275.035 C 24.159 277.926,25.989 280.648,26.273 280.772 C 26.434 280.841,26.565 281.070,26.565 281.279 C 26.565 281.638,32.181 289.083,34.960 292.410 C 40.157 298.630,52.596 309.473,58.943 313.315 C 59.948 313.923,61.058 314.596,61.410 314.809 C 61.762 315.022,62.818 315.692,63.757 316.297 C 64.696 316.903,67.173 318.282,69.260 319.361 L 73.055 321.324 73.257 333.812 C 73.467 346.862,73.558 347.590,75.284 350.095 C 80.766 358.049,92.411 359.020,99.465 352.112 C 102.647 348.997,102.968 347.887,103.144 339.374 L 103.296 332.068 104.250 332.068 C 104.774 332.068,106.167 332.302,107.346 332.588 C 108.524 332.874,111.110 333.378,113.093 333.709 C 115.076 334.039,118.250 334.574,120.147 334.897 C 122.043 335.220,124.605 335.486,125.839 335.488 C 127.074 335.491,130.816 335.746,134.156 336.056 C 137.495 336.366,142.875 336.622,146.110 336.626 C 153.314 336.634,153.442 336.666,154.294 338.648 C 154.667 339.517,155.284 340.944,155.665 341.820 C 156.045 342.695,156.357 343.593,156.357 343.814 C 156.357 344.035,156.698 344.853,157.116 345.631 C 157.533 346.410,157.875 347.315,157.875 347.641 C 157.875 347.968,158.017 348.398,158.192 348.596 C 158.366 348.794,158.816 349.810,159.192 350.854 C 162.711 360.627,171.284 364.883,180.324 361.344 C 189.567 357.725,191.171 350.610,185.596 337.951 C 184.719 335.959,184.469 334.690,184.928 334.557 C 185.359 334.432,188.350 333.966,197.533 332.594 C 199.620 332.282,202.268 331.846,203.416 331.626 C 204.564 331.406,206.869 330.997,208.539 330.716 C 210.209 330.436,213.087 329.936,214.935 329.606 C 218.939 328.890,218.522 328.637,221.645 333.677 C 222.973 335.819,224.751 338.596,225.597 339.848 C 226.443 341.101,227.306 342.415,227.514 342.770 C 232.459 351.168,241.189 354.174,249.192 350.234 C 257.124 346.329,259.033 338.730,254.014 331.033 C 253.228 329.828,252.409 328.558,252.194 328.211 C 251.541 327.157,249.172 323.317,248.759 322.643 C 248.546 322.296,247.899 321.279,247.322 320.384 C 245.929 318.225,245.266 318.801,255.408 313.359 C 261.080 310.315,267.514 306.689,268.770 305.828 C 269.336 305.441,269.907 305.123,270.040 305.123 C 270.173 305.123,270.741 304.796,271.304 304.395 C 271.866 303.995,273.344 303.111,274.588 302.430 C 275.832 301.750,278.848 299.943,281.290 298.415 C 287.161 294.740,285.594 293.826,294.097 305.882 C 299.511 313.559,301.301 314.684,308.469 314.918 C 318.426 315.242,325.269 308.390,323.510 299.856 C 323.031 297.531,322.879 297.271,317.247 289.184 C 309.781 278.462,310.113 279.527,313.480 277.066 C 314.624 276.229,315.731 275.409,315.939 275.242 C 316.148 275.076,317.429 274.150,318.786 273.185 C 320.142 272.219,321.623 271.112,322.076 270.724 C 322.529 270.336,324.733 268.567,326.974 266.793 C 329.215 265.019,333.282 261.646,336.012 259.298 C 338.742 256.950,341.245 255.028,341.575 255.028 C 341.905 255.028,344.616 257.509,347.599 260.541 C 354.956 268.018,356.945 269.257,362.319 269.707 C 371.417 270.470,378.824 264.140,378.283 256.064 C 378.010 251.981,376.996 250.490,368.786 242.102 C 360.517 233.654,361.127 234.948,363.863 231.664 C 365.069 230.217,367.242 227.495,368.691 225.617 C 370.141 223.738,371.463 222.030,371.628 221.822 C 373.103 219.963,376.197 215.574,377.415 213.613 C 382.226 205.869,386.971 197.173,388.574 193.163 C 388.864 192.435,389.419 191.124,389.807 190.249 C 390.195 189.373,390.518 188.434,390.524 188.161 C 390.531 187.889,390.787 187.335,391.094 186.929 C 391.400 186.524,391.651 185.867,391.651 185.469 C 391.651 185.070,391.891 184.207,392.184 183.549 C 392.911 181.921,394.307 177.089,394.307 176.203 C 394.307 175.807,394.469 175.322,394.667 175.123 C 394.865 174.925,395.185 173.824,395.378 172.676 C 395.570 171.528,395.912 169.820,396.138 168.880 C 398.013 161.061,398.023 142.004,396.157 133.586 C 395.949 132.647,395.635 130.998,395.460 129.922 C 395.285 128.846,394.959 127.395,394.735 126.697 C 394.511 125.998,393.962 124.146,393.514 122.581 C 392.641 119.528,391.506 115.992,390.935 114.551 C 390.741 114.062,390.217 112.723,389.768 111.575 C 389.320 110.427,388.802 109.146,388.616 108.729 C 388.430 108.311,387.863 107.030,387.355 105.882 C 386.276 103.446,384.181 99.113,383.685 98.292 C 383.496 97.979,382.114 95.588,380.614 92.979 C 378.339 89.021,373.703 81.685,372.581 80.266 C 372.416 80.057,370.630 77.666,368.612 74.953 C 357.237 59.654,344.911 47.844,330.311 38.254 C 321.983 32.784,319.058 31.064,313.769 28.526 C 307.187 25.367,304.763 24.288,304.249 24.288 C 303.979 24.288,303.595 24.133,303.397 23.944 C 303.086 23.647,301.168 22.965,295.768 21.234 C 286.814 18.364,271.721 16.501,263.947 17.308 M282.558 18.981 C 308.953 23.199,339.307 41.127,359.047 64.157 C 407.420 120.592,409.395 176.969,364.835 229.361 C 361.559 233.213,360.793 234.395,361.162 235.029 C 361.337 235.329,364.639 238.844,368.501 242.840 C 376.861 251.490,377.422 252.375,377.414 256.918 C 377.402 263.575,372.274 268.514,364.883 268.988 C 358.570 269.393,355.961 268.019,348.386 260.293 C 341.039 252.801,342.179 252.911,335.294 259.033 C 331.324 262.564,321.914 270.016,315.313 274.859 C 311.899 277.362,310.057 278.956,310.057 279.404 C 310.057 280.085,310.633 280.961,317.561 290.818 C 322.307 297.570,322.953 298.943,322.953 302.277 C 322.953 314.435,305.161 319.144,297.229 309.085 C 296.416 308.054,294.411 305.247,292.773 302.846 C 286.323 293.393,287.334 293.824,280.930 297.797 C 278.269 299.448,273.615 302.223,270.588 303.964 C 267.562 305.704,264.146 307.683,262.998 308.361 C 261.850 309.040,259.972 310.101,258.824 310.721 C 243.374 319.051,244.541 317.687,248.193 323.150 C 256.189 335.109,257.048 337.313,255.604 342.176 C 253.385 349.647,242.939 353.411,235.114 349.559 C 231.958 348.005,230.855 346.696,224.883 337.418 C 222.183 333.224,219.578 329.420,219.092 328.964 L 218.210 328.135 212.805 329.167 C 209.833 329.734,206.120 330.446,204.554 330.749 C 201.246 331.389,193.276 332.604,188.442 333.205 C 183.277 333.847,183.091 334.051,184.581 337.429 C 188.545 346.416,189.168 350.258,187.301 354.204 C 183.655 361.911,171.796 364.081,164.625 358.355 C 162.543 356.692,161.035 353.947,158.418 347.059 C 153.830 334.985,154.687 335.865,147.512 335.860 C 134.455 335.851,121.768 334.651,108.826 332.200 C 102.047 330.917,102.568 330.334,102.407 339.392 C 102.256 347.853,101.945 348.894,98.644 351.982 C 91.567 358.602,78.847 356.614,75.101 348.303 C 74.223 346.354,74.193 345.953,74.006 333.590 L 73.814 320.881 69.808 318.790 C 37.048 301.687,15.595 272.246,5.509 230.550 C 1.955 215.855,2.108 195.529,5.868 183.171 C 13.274 158.823,36.790 140.946,66.603 136.998 C 68.273 136.777,70.493 136.431,71.537 136.229 C 72.581 136.028,77.704 135.609,82.922 135.299 C 97.039 134.459,107.982 132.118,116.698 128.073 C 117.742 127.589,120.082 126.512,121.898 125.679 C 136.774 118.858,154.229 103.919,163.651 89.943 C 200.070 35.921,239.885 12.160,282.558 18.981 M259.962 43.634 C 237.467 46.574,211.075 68.065,188.642 101.708 C 165.984 135.690,127.105 158.015,87.513 159.778 C 65.288 160.768,48.471 166.921,40.268 177.064 C 30.745 188.840,28.528 210.383,34.681 231.347 C 44.964 266.385,65.405 290.561,94.511 302.113 C 100.723 304.578,104.288 305.595,115.655 308.145 C 133.756 312.206,164.497 312.127,190.070 307.955 C 202.173 305.980,209.867 304.552,217.268 302.906 C 218.937 302.535,221.499 301.626,222.960 300.888 C 229.261 297.702,242.541 290.548,248.197 287.293 C 249.554 286.512,252.116 285.048,253.890 284.039 C 300.961 257.271,334.852 228.045,353.790 197.889 C 361.115 186.225,366.270 170.407,367.384 156.175 C 371.681 101.274,310.374 37.046,259.962 43.634 M279.140 44.925 C 280.385 45.240,282.941 45.876,284.820 46.339 C 286.698 46.802,288.406 47.305,288.615 47.456 C 288.824 47.607,289.592 47.855,290.323 48.008 C 291.053 48.160,291.822 48.415,292.030 48.574 C 292.239 48.733,292.837 48.991,293.359 49.146 C 298.332 50.626,311.737 58.302,318.303 63.429 C 319.603 64.445,320.827 65.275,321.023 65.275 C 321.219 65.275,321.436 65.410,321.505 65.575 C 321.575 65.740,322.907 66.892,324.466 68.136 C 328.639 71.467,334.923 77.902,338.279 82.279 C 338.710 82.842,339.162 83.387,339.284 83.491 C 343.398 87.023,358.248 111.247,359.599 116.630 C 359.741 117.193,360.008 117.748,360.194 117.863 C 360.379 117.978,360.531 118.334,360.531 118.656 C 360.531 118.977,360.774 119.778,361.071 120.436 C 361.368 121.094,361.981 122.827,362.434 124.288 C 362.887 125.750,363.481 127.628,363.755 128.463 C 368.165 141.918,367.503 165.860,362.402 177.419 C 362.217 177.837,361.790 179.032,361.451 180.076 C 361.112 181.120,360.607 182.486,360.328 183.112 C 360.048 183.738,359.393 185.275,358.871 186.528 C 355.692 194.153,348.162 206.074,341.130 214.611 C 333.176 224.268,318.910 238.137,309.091 245.760 C 307.848 246.724,306.746 247.634,306.641 247.781 C 306.433 248.075,298.524 254.119,297.157 255.028 C 296.687 255.342,296.109 255.772,295.874 255.985 C 295.638 256.199,294.250 257.221,292.789 258.258 C 291.328 259.295,289.364 260.693,288.425 261.365 C 284.225 264.369,273.920 271.146,269.260 273.969 C 267.799 274.854,264.725 276.758,262.429 278.199 C 260.133 279.641,257.896 280.981,257.459 281.176 C 257.021 281.371,255.569 282.198,254.233 283.013 C 251.927 284.420,250.275 285.356,245.256 288.100 C 244.056 288.756,242.903 289.417,242.694 289.568 C 242.192 289.931,239.005 291.671,234.393 294.098 C 232.331 295.183,229.001 296.937,226.992 297.996 C 219.450 301.970,220.090 301.746,211.575 303.407 C 202.981 305.083,197.181 306.127,193.548 306.650 C 191.983 306.876,189.417 307.308,187.847 307.610 C 186.277 307.912,184.142 308.165,183.103 308.173 C 182.064 308.180,179.848 308.444,178.178 308.760 C 176.509 309.076,172.581 309.484,169.450 309.668 C 166.319 309.851,160.476 310.213,156.466 310.472 C 150.684 310.845,147.856 310.846,142.804 310.476 C 139.300 310.220,134.042 309.863,131.120 309.683 C 128.197 309.503,125.294 309.179,124.668 308.961 C 124.042 308.744,122.078 308.396,120.304 308.188 C 118.529 307.980,116.395 307.638,115.560 307.429 C 114.725 307.220,111.309 306.354,107.970 305.505 C 104.630 304.656,101.214 303.792,100.380 303.586 C 99.545 303.381,98.520 303.054,98.102 302.860 C 97.685 302.666,96.404 302.138,95.256 301.686 C 85.645 297.902,76.321 292.224,67.567 284.822 C 63.657 281.517,56.633 273.903,53.909 270.019 C 51.255 266.234,48.197 261.537,48.197 261.245 C 48.197 261.094,47.959 260.701,47.667 260.371 C 46.777 259.367,43.514 252.834,41.397 247.818 C 40.296 245.209,39.155 242.513,38.862 241.828 C 38.570 241.142,38.330 240.400,38.330 240.177 C 38.330 239.955,38.104 239.235,37.827 238.577 C 37.083 236.806,36.076 233.839,35.491 231.689 C 33.977 226.127,33.703 224.959,33.174 221.822 C 29.530 200.213,34.013 182.059,45.241 172.960 C 46.207 172.177,47.088 171.537,47.199 171.537 C 47.309 171.537,48.135 171.049,49.032 170.452 C 49.930 169.855,52.030 168.727,53.700 167.945 C 55.370 167.163,57.024 166.376,57.375 166.196 C 58.063 165.844,61.485 164.676,63.947 163.952 C 66.588 163.176,70.284 162.406,73.874 161.884 C 75.785 161.606,77.534 161.264,77.761 161.124 C 77.988 160.983,81.890 160.719,86.431 160.536 C 99.186 160.022,108.785 158.415,118.596 155.151 C 119.222 154.942,120.247 154.631,120.873 154.459 C 121.499 154.286,122.951 153.776,124.099 153.325 C 125.247 152.874,126.625 152.368,127.161 152.200 C 127.697 152.032,128.465 151.708,128.868 151.479 C 129.272 151.250,130.712 150.615,132.068 150.067 C 138.484 147.476,150.000 140.732,156.322 135.863 C 166.678 127.888,173.088 121.900,181.973 111.906 C 183.988 109.639,186.338 106.746,186.338 106.531 C 186.338 106.060,193.983 95.102,197.898 89.962 C 205.611 79.836,215.188 69.419,221.632 64.148 C 222.989 63.039,224.184 62.017,224.288 61.879 C 224.551 61.529,230.218 57.320,232.068 56.099 C 241.657 49.775,252.505 45.212,259.962 44.366 C 263.993 43.908,276.566 44.275,279.140 44.925 M246.092 86.733 C 242.020 88.808,234.038 97.139,232.823 100.583 C 228.711 112.235,243.586 121.989,255.218 115.269 C 257.867 113.739,265.307 105.945,266.646 103.297 C 272.232 92.258,257.907 80.714,246.092 86.733 M259.454 87.177 C 266.076 90.419,268.921 97.274,266.034 103.031 C 263.413 108.258,254.721 115.534,249.931 116.511 C 239.247 118.690,229.563 108.483,233.941 99.659 C 234.617 98.296,241.281 90.959,243.758 88.850 C 247.144 85.967,255.224 85.106,259.454 87.177 M209.488 114.394 C 203.706 115.999,199.541 120.421,199.097 125.427 C 198.824 128.516,199.333 136.929,199.994 140.228 C 201.527 147.878,202.810 152.787,203.462 153.491 C 203.645 153.690,203.795 154.142,203.795 154.495 C 203.795 154.849,204.757 157.078,205.932 159.448 C 213.695 175.100,226.994 186.401,244.402 192.140 C 265.291 199.026,274.279 199.143,280.387 192.612 C 288.491 183.944,282.317 172.950,268.338 171.156 C 263.490 170.534,255.426 167.945,250.653 165.478 C 237.045 158.445,229.868 146.923,228.851 130.478 C 228.482 124.515,227.916 122.484,225.867 119.771 C 222.288 115.030,215.374 112.760,209.488 114.394 M219.545 115.796 C 224.974 117.877,227.211 121.424,227.909 129.062 C 230.236 154.528,243.121 167.868,269.515 172.137 C 275.889 173.168,279.768 175.529,281.855 179.648 C 286.154 188.131,278.066 197.868,267.605 196.804 C 239.466 193.942,216.627 179.964,206.829 159.607 C 200.998 147.491,197.717 128.186,200.518 122.463 C 203.757 115.841,212.066 112.930,219.545 115.796 M302.319 139.101 C 299.741 140.171,297.953 141.421,295.868 143.611 C 287.969 151.907,287.283 153.005,287.311 157.306 C 287.379 167.586,300.517 174.000,310.057 168.409 C 313.629 166.316,321.161 157.976,322.325 154.826 C 326.097 144.613,313.290 134.545,302.319 139.101 M314.037 139.888 C 320.733 142.569,324.001 149.629,321.265 155.505 C 319.730 158.803,312.442 166.185,308.939 167.992 C 297.709 173.784,283.807 163.113,289.002 152.689 C 290.679 149.324,299.079 141.130,302.087 139.925 C 305.639 138.502,310.536 138.487,314.037 139.888 " stroke="none" fill="#6a6a6a" fill-rule="evenodd"></path><path id="path4" d="M267.850 18.117 C 268.952 18.194,270.660 18.193,271.645 18.115 C 272.629 18.037,271.727 17.974,269.639 17.975 C 267.552 17.976,266.747 18.040,267.850 18.117 M260.821 18.489 C 261.398 18.576,262.252 18.574,262.719 18.483 C 263.185 18.393,262.713 18.322,261.670 18.325 C 260.626 18.328,260.244 18.401,260.821 18.489 M276.381 18.489 C 276.958 18.576,277.812 18.574,278.278 18.483 C 278.745 18.393,278.273 18.322,277.230 18.325 C 276.186 18.328,275.804 18.401,276.381 18.489 M226.186 28.463 C 225.038 29.069,224.232 29.574,224.396 29.584 C 224.799 29.608,228.463 27.738,228.463 27.508 C 228.463 27.254,228.516 27.232,226.186 28.463 M313.504 29.366 C 313.891 29.719,317.647 31.492,317.647 31.322 C 317.647 31.108,314.023 29.222,313.612 29.222 C 313.466 29.222,313.417 29.287,313.504 29.366 M260.436 43.525 C 260.802 43.621,261.399 43.621,261.765 43.525 C 262.130 43.430,261.831 43.352,261.101 43.352 C 260.370 43.352,260.071 43.430,260.436 43.525 M273.719 43.525 C 274.084 43.621,274.682 43.621,275.047 43.525 C 275.413 43.430,275.114 43.352,274.383 43.352 C 273.653 43.352,273.354 43.430,273.719 43.525 M200.925 46.015 L 199.810 47.249 201.044 46.134 C 201.722 45.521,202.277 44.966,202.277 44.901 C 202.277 44.607,201.964 44.865,200.925 46.015 M196.760 49.810 L 194.877 51.803 196.869 49.919 C 198.720 48.169,199.036 47.818,198.752 47.818 C 198.692 47.818,197.796 48.714,196.760 49.810 M300.221 51.375 C 300.612 51.724,302.846 52.751,302.846 52.581 C 302.846 52.363,300.742 51.233,300.335 51.233 C 300.186 51.233,300.134 51.297,300.221 51.375 M349.146 54.080 C 349.854 54.810,350.519 55.408,350.623 55.408 C 350.728 55.408,350.234 54.810,349.526 54.080 C 348.818 53.349,348.153 52.751,348.048 52.751 C 347.944 52.751,348.438 53.349,349.146 54.080 M189.552 57.021 L 187.287 59.393 189.658 57.128 C 191.862 55.023,192.204 54.649,191.924 54.649 C 191.865 54.649,190.798 55.716,189.552 57.021 M355.598 60.531 C 356.306 61.262,356.971 61.860,357.075 61.860 C 357.179 61.860,356.685 61.262,355.977 60.531 C 355.269 59.801,354.604 59.203,354.500 59.203 C 354.396 59.203,354.890 59.801,355.598 60.531 M185.558 61.385 L 184.250 62.808 185.674 61.501 C 186.456 60.781,187.097 60.141,187.097 60.077 C 187.097 59.788,186.776 60.061,185.558 61.385 M223.316 61.575 L 222.201 62.808 223.435 61.694 C 224.113 61.081,224.668 60.526,224.668 60.460 C 224.668 60.167,224.355 60.425,223.316 61.575 M220.659 63.852 L 219.545 65.085 220.778 63.971 C 221.456 63.358,222.011 62.803,222.011 62.737 C 222.011 62.444,221.698 62.702,220.659 63.852 M359.013 64.635 C 359.013 64.700,359.568 65.255,360.247 65.868 L 361.480 66.983 360.365 65.750 C 359.326 64.600,359.013 64.342,359.013 64.635 M216.864 67.268 L 215.750 68.501 216.983 67.386 C 217.661 66.773,218.216 66.218,218.216 66.153 C 218.216 65.860,217.903 66.118,216.864 67.268 M330.930 73.055 C 332.695 74.829,334.224 76.281,334.329 76.281 C 334.433 76.281,333.074 74.829,331.309 73.055 C 329.544 71.281,328.015 69.829,327.910 69.829 C 327.806 69.829,329.165 71.281,330.930 73.055 M210.043 74.099 L 208.159 76.091 210.152 74.208 C 212.003 72.458,212.318 72.106,212.035 72.106 C 211.975 72.106,211.078 73.003,210.043 74.099 M206.072 78.368 C 205.150 79.307,204.481 80.076,204.586 80.076 C 204.690 80.076,205.530 79.307,206.452 78.368 C 207.373 77.429,208.042 76.660,207.938 76.660 C 207.834 76.660,206.994 77.429,206.072 78.368 M335.104 77.538 C 335.104 77.603,335.659 78.158,336.338 78.772 L 337.571 79.886 336.457 78.653 C 335.418 77.503,335.104 77.245,335.104 77.538 M167.742 83.871 C 167.296 84.497,167.017 85.009,167.121 85.009 C 167.225 85.009,167.676 84.497,168.121 83.871 C 168.567 83.245,168.847 82.732,168.742 82.732 C 168.638 82.732,168.188 83.245,167.742 83.871 M244.877 88.041 C 244.198 88.455,243.643 88.876,243.643 88.976 C 243.643 89.076,244.241 88.806,244.972 88.375 C 245.702 87.944,246.300 87.523,246.300 87.439 C 246.300 87.196,246.180 87.247,244.877 88.041 M263.378 90.133 C 264.086 90.863,264.750 91.461,264.855 91.461 C 264.959 91.461,264.465 90.863,263.757 90.133 C 263.049 89.402,262.384 88.805,262.280 88.805 C 262.176 88.805,262.670 89.402,263.378 90.133 M377.799 89.943 C 378.123 90.569,378.473 91.082,378.577 91.082 C 378.682 91.082,378.502 90.569,378.178 89.943 C 377.855 89.317,377.504 88.805,377.400 88.805 C 377.295 88.805,377.475 89.317,377.799 89.943 M345.351 90.323 C 345.797 90.949,346.247 91.461,346.351 91.461 C 346.456 91.461,346.176 90.949,345.731 90.323 C 345.285 89.696,344.834 89.184,344.730 89.184 C 344.626 89.184,344.905 89.696,345.351 90.323 M194.473 92.854 C 193.889 93.621,193.604 94.128,193.841 93.981 C 194.327 93.681,195.970 91.461,195.707 91.461 C 195.613 91.461,195.058 92.088,194.473 92.854 M237.749 94.972 L 235.484 97.343 237.856 95.078 C 239.160 93.832,240.228 92.765,240.228 92.706 C 240.228 92.426,239.853 92.768,237.749 94.972 M266.911 98.102 C 266.913 99.355,266.984 99.821,267.068 99.139 C 267.153 98.457,267.151 97.433,267.064 96.862 C 266.978 96.292,266.909 96.850,266.911 98.102 M156.529 99.146 L 155.028 100.759 156.641 99.259 C 158.141 97.864,158.429 97.533,158.142 97.533 C 158.080 97.533,157.354 98.259,156.529 99.146 M383.112 99.431 C 383.641 100.474,384.159 101.328,384.263 101.328 C 384.368 101.328,384.020 100.474,383.491 99.431 C 382.963 98.387,382.445 97.533,382.340 97.533 C 382.236 97.533,382.583 98.387,383.112 99.431 M147.808 107.875 L 145.161 110.626 147.913 107.980 C 149.426 106.524,150.664 105.286,150.664 105.228 C 150.664 104.950,150.266 105.319,147.808 107.875 M262.035 107.875 L 260.152 109.867 262.144 107.984 C 263.996 106.234,264.311 105.882,264.027 105.882 C 263.967 105.882,263.071 106.779,262.035 107.875 M257.092 112.808 L 255.977 114.042 257.211 112.927 C 257.889 112.314,258.444 111.759,258.444 111.694 C 258.444 111.401,258.131 111.659,257.092 112.808 M212.429 114.886 C 213.107 114.970,214.217 114.970,214.896 114.886 C 215.574 114.801,215.019 114.732,213.662 114.732 C 212.306 114.732,211.750 114.801,212.429 114.886 M172.670 120.588 L 167.932 125.427 172.770 120.689 C 177.265 116.288,177.781 115.750,177.509 115.750 C 177.453 115.750,175.276 117.927,172.670 120.588 M246.015 116.780 C 246.589 116.867,247.528 116.867,248.102 116.780 C 248.676 116.693,248.207 116.622,247.059 116.622 C 245.911 116.622,245.441 116.693,246.015 116.780 M223.719 118.786 C 224.534 119.620,225.287 120.304,225.391 120.304 C 225.496 120.304,224.914 119.620,224.099 118.786 C 223.283 117.951,222.531 117.268,222.427 117.268 C 222.322 117.268,222.904 117.951,223.719 118.786 M199.767 128.653 C 199.767 131.262,199.827 132.329,199.901 131.025 C 199.976 129.720,199.976 127.585,199.901 126.281 C 199.827 124.976,199.767 126.044,199.767 128.653 M165.444 127.419 L 164.137 128.843 165.560 127.535 C 166.343 126.815,166.983 126.175,166.983 126.112 C 166.983 125.822,166.662 126.095,165.444 127.419 M227.813 130.740 C 227.815 131.784,227.889 132.166,227.976 131.589 C 228.064 131.012,228.061 130.158,227.971 129.691 C 227.881 129.224,227.810 129.696,227.813 130.740 M90.797 134.986 C 91.162 135.082,91.760 135.082,92.125 134.986 C 92.491 134.891,92.192 134.813,91.461 134.813 C 90.731 134.813,90.432 134.891,90.797 134.986 M83.966 135.376 C 84.540 135.463,85.479 135.463,86.053 135.376 C 86.627 135.289,86.157 135.218,85.009 135.218 C 83.861 135.218,83.392 135.289,83.966 135.376 M77.135 135.745 C 77.500 135.841,78.098 135.841,78.463 135.745 C 78.828 135.650,78.529 135.572,77.799 135.572 C 77.068 135.572,76.769 135.650,77.135 135.745 M73.150 136.131 C 73.620 136.222,74.388 136.222,74.858 136.131 C 75.327 136.041,74.943 135.967,74.004 135.967 C 73.065 135.967,72.680 136.041,73.150 136.131 M395.913 138.520 C 395.913 139.250,395.992 139.549,396.087 139.184 C 396.182 138.819,396.182 138.221,396.087 137.856 C 395.992 137.491,395.913 137.789,395.913 138.520 M300.285 140.793 C 298.571 141.838,298.731 142.093,300.474 141.095 C 302.228 140.091,302.298 140.038,301.866 140.039 C 301.675 140.040,300.963 140.379,300.285 140.793 M367.079 141.746 C 367.083 142.581,367.161 142.878,367.251 142.405 C 367.342 141.933,367.339 141.250,367.244 140.887 C 367.149 140.525,367.074 140.911,367.079 141.746 M295.815 144.687 L 293.169 147.438 295.920 144.792 C 297.434 143.336,298.672 142.098,298.672 142.041 C 298.672 141.762,298.273 142.131,295.815 144.687 M317.647 142.054 C 317.647 142.120,318.202 142.675,318.880 143.288 L 320.114 144.402 318.999 143.169 C 317.960 142.019,317.647 141.761,317.647 142.054 M396.742 151.044 C 396.742 154.905,396.798 156.485,396.867 154.554 C 396.936 152.623,396.936 149.464,396.867 147.533 C 396.798 145.602,396.742 147.182,396.742 151.044 M367.450 146.869 C 367.450 147.600,367.529 147.898,367.624 147.533 C 367.719 147.168,367.719 146.570,367.624 146.205 C 367.529 145.840,367.450 146.139,367.450 146.869 M291.061 149.810 L 289.753 151.233 291.176 149.926 C 292.501 148.708,292.774 148.387,292.484 148.387 C 292.421 148.387,291.780 149.028,291.061 149.810 M233.207 150.285 C 233.531 150.911,233.881 151.423,233.985 151.423 C 234.090 151.423,233.910 150.911,233.586 150.285 C 233.263 149.658,232.912 149.146,232.808 149.146 C 232.703 149.146,232.883 149.658,233.207 150.285 M24.834 154.554 L 23.719 155.787 24.953 154.673 C 25.631 154.060,26.186 153.505,26.186 153.439 C 26.186 153.146,25.873 153.404,24.834 154.554 M367.450 154.839 C 367.450 155.569,367.529 155.868,367.624 155.503 C 367.719 155.138,367.719 154.540,367.624 154.175 C 367.529 153.809,367.450 154.108,367.450 154.839 M320.493 156.357 C 320.170 156.983,319.990 157.495,320.094 157.495 C 320.199 157.495,320.549 156.983,320.873 156.357 C 321.197 155.731,321.376 155.218,321.272 155.218 C 321.167 155.218,320.817 155.731,320.493 156.357 M318.006 159.677 L 316.698 161.101 318.121 159.793 C 319.446 158.575,319.719 158.254,319.429 158.254 C 319.366 158.254,318.725 158.895,318.006 159.677 M18.771 160.626 L 16.888 162.619 18.880 160.735 C 19.976 159.700,20.873 158.803,20.873 158.743 C 20.873 158.460,20.521 158.775,18.771 160.626 M367.079 160.342 C 367.083 161.176,367.161 161.473,367.251 161.001 C 367.342 160.529,367.339 159.846,367.244 159.483 C 367.149 159.120,367.074 159.507,367.079 160.342 M86.827 159.674 C 88.140 159.748,90.189 159.748,91.381 159.673 C 92.573 159.598,91.499 159.537,88.994 159.538 C 86.490 159.538,85.514 159.600,86.827 159.674 M80.740 160.040 C 81.210 160.131,81.978 160.131,82.448 160.040 C 82.917 159.950,82.533 159.876,81.594 159.876 C 80.655 159.876,80.270 159.950,80.740 160.040 M207.780 161.670 C 208.104 162.296,208.454 162.808,208.558 162.808 C 208.663 162.808,208.483 162.296,208.159 161.670 C 207.836 161.044,207.485 160.531,207.381 160.531 C 207.277 160.531,207.456 161.044,207.780 161.670 M395.913 163.947 C 395.913 164.677,395.992 164.976,396.087 164.611 C 396.182 164.246,396.182 163.648,396.087 163.283 C 395.992 162.917,395.913 163.216,395.913 163.947 M300.484 169.538 C 301.377 169.618,302.743 169.617,303.520 169.536 C 304.298 169.454,303.567 169.389,301.898 169.390 C 300.228 169.391,299.592 169.458,300.484 169.538 M216.129 173.435 C 217.368 174.687,218.468 175.712,218.572 175.712 C 218.676 175.712,217.748 174.687,216.509 173.435 C 215.269 172.182,214.170 171.157,214.066 171.157 C 213.961 171.157,214.890 172.182,216.129 173.435 M40.987 175.712 C 40.113 176.755,39.483 177.609,39.588 177.609 C 39.692 177.609,40.492 176.755,41.366 175.712 C 42.240 174.668,42.870 173.814,42.765 173.814 C 42.661 173.814,41.861 174.668,40.987 175.712 M220.493 177.799 C 221.201 178.529,221.866 179.127,221.971 179.127 C 222.075 179.127,221.581 178.529,220.873 177.799 C 220.165 177.068,219.500 176.471,219.396 176.471 C 219.291 176.471,219.785 177.068,220.493 177.799 M36.034 182.959 C 35.598 183.814,35.306 184.579,35.386 184.658 C 35.465 184.738,35.902 184.038,36.356 183.104 C 37.390 180.975,37.111 180.849,36.034 182.959 M282.820 185.579 C 282.820 186.309,282.899 186.608,282.994 186.243 C 283.090 185.878,283.090 185.280,282.994 184.915 C 282.899 184.549,282.820 184.848,282.820 185.579 M231.879 185.749 C 231.879 185.853,232.391 186.204,233.017 186.528 C 233.643 186.851,234.156 187.031,234.156 186.927 C 234.156 186.822,233.643 186.472,233.017 186.148 C 232.391 185.824,231.879 185.645,231.879 185.749 M279.483 192.505 L 278.368 193.738 279.602 192.623 C 280.280 192.010,280.835 191.455,280.835 191.390 C 280.835 191.097,280.522 191.355,279.483 192.505 M3.124 197.723 C 3.124 198.454,3.202 198.752,3.298 198.387 C 3.393 198.022,3.393 197.424,3.298 197.059 C 3.202 196.694,3.124 196.992,3.124 197.723 M268.223 196.859 C 268.905 196.944,269.930 196.942,270.500 196.856 C 271.070 196.769,270.512 196.700,269.260 196.702 C 268.008 196.704,267.541 196.775,268.223 196.859 M384.250 200.000 C 383.927 200.626,383.747 201.139,383.851 201.139 C 383.956 201.139,384.306 200.626,384.630 200.000 C 384.954 199.374,385.133 198.861,385.029 198.861 C 384.925 198.861,384.574 199.374,384.250 200.000 M31.250 203.226 C 31.251 204.896,31.318 205.532,31.398 204.639 C 31.478 203.746,31.477 202.380,31.395 201.603 C 31.314 200.826,31.248 201.556,31.250 203.226 M348.387 206.072 C 347.941 206.698,347.662 207.211,347.766 207.211 C 347.871 207.211,348.321 206.698,348.767 206.072 C 349.212 205.446,349.492 204.934,349.388 204.934 C 349.283 204.934,348.833 205.446,348.387 206.072 M31.254 211.195 C 31.253 213.074,31.317 213.890,31.397 213.010 C 31.476 212.129,31.477 210.592,31.399 209.594 C 31.321 208.596,31.255 209.317,31.254 211.195 M342.462 213.929 C 341.657 214.911,341.197 215.592,341.440 215.442 C 341.956 215.123,344.359 212.144,344.100 212.144 C 344.004 212.144,343.266 212.947,342.462 213.929 M3.132 214.611 C 3.136 215.446,3.214 215.743,3.304 215.271 C 3.395 214.799,3.392 214.116,3.297 213.753 C 3.202 213.390,3.128 213.776,3.132 214.611 M337.740 219.639 L 336.433 221.063 337.856 219.755 C 339.180 218.537,339.453 218.216,339.164 218.216 C 339.100 218.216,338.460 218.857,337.740 219.639 M3.883 221.632 C 3.883 222.362,3.961 222.661,4.057 222.296 C 4.152 221.931,4.152 221.333,4.057 220.968 C 3.961 220.602,3.883 220.901,3.883 221.632 M334.521 223.245 L 332.638 225.237 334.630 223.354 C 336.481 221.604,336.796 221.252,336.513 221.252 C 336.453 221.252,335.557 222.149,334.521 223.245 M324.850 232.922 L 321.252 236.622 324.953 233.025 C 326.988 231.046,328.653 229.381,328.653 229.324 C 328.653 229.049,328.192 229.486,324.850 232.922 M363.167 231.025 L 361.860 232.448 363.283 231.140 C 364.065 230.421,364.706 229.780,364.706 229.717 C 364.706 229.427,364.385 229.700,363.167 231.025 M360.911 235.143 C 360.911 235.338,362.661 237.203,364.801 239.286 L 368.691 243.074 364.896 239.101 C 362.808 236.916,361.058 235.052,361.006 234.958 C 360.954 234.865,360.911 234.948,360.911 235.143 M319.710 237.666 L 318.596 238.899 319.829 237.785 C 320.979 236.746,321.237 236.433,320.944 236.433 C 320.879 236.433,320.324 236.988,319.710 237.666 M313.638 242.979 L 312.524 244.213 313.757 243.098 C 314.435 242.485,314.991 241.930,314.991 241.864 C 314.991 241.571,314.677 241.829,313.638 242.979 M340.666 254.175 C 340.569 254.331,340.970 254.459,341.556 254.459 C 342.142 254.459,342.543 254.331,342.446 254.175 C 342.349 254.018,341.949 253.890,341.556 253.890 C 341.163 253.890,340.763 254.018,340.666 254.175 M336.029 258.159 L 334.915 259.393 336.148 258.278 C 336.826 257.665,337.381 257.110,337.381 257.045 C 337.381 256.752,337.068 257.010,336.029 258.159 M45.351 258.444 C 45.675 259.070,46.025 259.583,46.130 259.583 C 46.234 259.583,46.054 259.070,45.731 258.444 C 45.407 257.818,45.056 257.306,44.952 257.306 C 44.848 257.306,45.027 257.818,45.351 258.444 M332.993 260.816 L 331.879 262.049 333.112 260.935 C 333.790 260.322,334.345 259.767,334.345 259.701 C 334.345 259.408,334.032 259.666,332.993 260.816 M350.664 262.808 C 351.798 263.956,352.811 264.896,352.915 264.896 C 353.020 264.896,352.177 263.956,351.044 262.808 C 349.910 261.660,348.897 260.721,348.793 260.721 C 348.688 260.721,349.530 261.660,350.664 262.808 M17.078 263.517 C 17.078 263.928,18.964 267.552,19.178 267.552 C 19.282 267.552,18.917 266.656,18.367 265.560 C 17.308 263.452,17.078 263.087,17.078 263.517 M320.669 270.616 L 319.355 271.782 320.778 270.760 C 322.036 269.858,322.445 269.450,322.092 269.450 C 322.032 269.450,321.391 269.974,320.669 270.616 M268.972 274.905 C 267.149 276.026,266.640 276.555,268.121 275.789 C 269.311 275.174,270.916 274.028,270.588 274.028 C 270.484 274.028,269.756 274.422,268.972 274.905 M60.911 279.696 C 61.726 280.531,62.479 281.214,62.583 281.214 C 62.687 281.214,62.106 280.531,61.290 279.696 C 60.475 278.861,59.723 278.178,59.618 278.178 C 59.514 278.178,60.096 278.861,60.911 279.696 M64.706 283.491 C 65.734 284.535,66.660 285.389,66.765 285.389 C 66.869 285.389,66.113 284.535,65.085 283.491 C 64.057 282.448,63.131 281.594,63.027 281.594 C 62.922 281.594,63.678 282.448,64.706 283.491 M314.231 286.528 C 314.677 287.154,315.128 287.666,315.232 287.666 C 315.336 287.666,315.057 287.154,314.611 286.528 C 314.165 285.901,313.715 285.389,313.611 285.389 C 313.506 285.389,313.786 285.901,314.231 286.528 M249.620 286.365 C 248.202 287.135,248.288 287.455,249.715 286.717 C 250.342 286.393,250.854 286.048,250.854 285.949 C 250.854 285.704,250.813 285.718,249.620 286.365 M240.892 291.299 C 239.473 292.068,239.559 292.389,240.987 291.651 C 241.613 291.327,242.125 290.981,242.125 290.882 C 242.125 290.638,242.084 290.652,240.892 291.299 M41.176 297.913 C 44.302 301.044,46.945 303.605,47.049 303.605 C 47.154 303.605,44.682 301.044,41.556 297.913 C 38.430 294.782,35.787 292.220,35.683 292.220 C 35.579 292.220,38.051 294.782,41.176 297.913 M229.507 297.371 C 228.088 298.140,228.174 298.461,229.602 297.723 C 230.228 297.399,230.740 297.053,230.740 296.954 C 230.740 296.710,230.699 296.724,229.507 297.371 M278.273 299.095 C 276.980 299.923,276.561 300.480,277.704 299.851 C 278.575 299.373,279.939 298.318,279.696 298.311 C 279.592 298.308,278.952 298.660,278.273 299.095 M86.907 298.858 C 86.907 299.118,89.231 300.270,89.404 300.096 C 89.487 300.014,88.958 299.662,88.231 299.315 C 87.503 298.968,86.907 298.762,86.907 298.858 M221.252 301.708 C 220.522 302.108,220.095 302.435,220.304 302.435 C 220.512 302.435,221.281 302.108,222.011 301.708 C 222.742 301.308,223.169 300.981,222.960 300.981 C 222.751 300.981,221.983 301.308,221.252 301.708 M266.319 306.099 C 264.900 306.869,264.986 307.190,266.414 306.452 C 267.040 306.128,267.552 305.782,267.552 305.683 C 267.552 305.439,267.511 305.452,266.319 306.099 M182.073 309.187 C 182.545 309.278,183.228 309.274,183.591 309.179 C 183.954 309.084,183.567 309.010,182.732 309.014 C 181.898 309.018,181.601 309.096,182.073 309.187 M127.230 310.319 C 127.595 310.414,128.193 310.414,128.558 310.319 C 128.923 310.223,128.624 310.145,127.894 310.145 C 127.163 310.145,126.864 310.223,127.230 310.319 M172.201 310.325 C 172.671 310.415,173.439 310.415,173.909 310.325 C 174.379 310.234,173.994 310.160,173.055 310.160 C 172.116 310.160,171.731 310.234,172.201 310.325 M131.598 310.705 C 132.070 310.796,132.754 310.792,133.116 310.697 C 133.479 310.602,133.093 310.528,132.258 310.532 C 131.423 310.536,131.126 310.614,131.598 310.705 M167.651 310.705 C 168.124 310.796,168.807 310.792,169.170 310.697 C 169.532 310.602,169.146 310.528,168.311 310.532 C 167.476 310.536,167.179 310.614,167.651 310.705 M137.476 311.078 C 137.842 311.173,138.439 311.173,138.805 311.078 C 139.170 310.982,138.871 310.904,138.140 310.904 C 137.410 310.904,137.111 310.982,137.476 311.078 M145.846 311.479 C 148.101 311.546,151.688 311.546,153.816 311.478 C 155.944 311.411,154.099 311.356,149.715 311.356 C 145.332 311.356,143.591 311.412,145.846 311.479 M59.013 312.531 C 59.431 312.870,60.114 313.316,60.531 313.521 L 61.290 313.894 60.531 313.276 C 60.114 312.936,59.431 312.490,59.013 312.285 L 58.254 311.913 59.013 312.531 M253.416 313.310 C 251.997 314.080,252.083 314.400,253.510 313.662 C 254.137 313.338,254.649 312.992,254.649 312.893 C 254.649 312.649,254.608 312.663,253.416 313.310 M308.071 314.507 C 308.753 314.591,309.778 314.589,310.348 314.503 C 310.919 314.416,310.361 314.347,309.108 314.349 C 307.856 314.351,307.389 314.422,308.071 314.507 M65.275 316.303 C 65.275 316.408,65.958 316.842,66.793 317.268 C 67.628 317.693,68.311 317.957,68.311 317.852 C 68.311 317.748,67.628 317.314,66.793 316.888 C 65.958 316.462,65.275 316.199,65.275 316.303 M74.173 333.017 C 74.172 339.488,74.224 342.188,74.288 339.018 C 74.351 335.848,74.351 330.554,74.288 327.253 C 74.225 323.953,74.173 326.546,74.173 333.017 M102.715 331.624 C 102.174 332.222,102.099 333.234,102.169 338.929 L 102.250 345.541 102.453 338.720 C 102.656 331.914,102.659 331.899,103.605 331.420 C 104.197 331.121,104.326 330.939,103.949 330.935 C 103.616 330.932,103.061 331.242,102.715 331.624 M183.692 334.143 C 183.438 334.449,183.318 334.919,183.426 335.186 C 183.552 335.500,183.632 335.444,183.651 335.028 C 183.668 334.673,183.980 334.209,184.345 333.996 C 184.711 333.783,184.817 333.604,184.582 333.598 C 184.346 333.592,183.946 333.837,183.692 334.143 M128.368 334.997 C 128.942 335.084,129.881 335.084,130.455 334.997 C 131.029 334.910,130.560 334.839,129.412 334.839 C 128.264 334.839,127.794 334.910,128.368 334.997 M133.116 335.373 C 133.588 335.464,134.272 335.460,134.634 335.365 C 134.997 335.270,134.611 335.196,133.776 335.200 C 132.941 335.204,132.644 335.282,133.116 335.373 M141.082 335.762 C 141.969 335.842,143.420 335.842,144.307 335.762 C 145.194 335.682,144.469 335.616,142.694 335.616 C 140.920 335.616,140.194 335.682,141.082 335.762 M255.905 338.710 C 255.907 339.962,255.978 340.429,256.063 339.747 C 256.147 339.064,256.145 338.040,256.059 337.469 C 255.972 336.899,255.903 337.457,255.905 338.710 M254.388 344.243 C 253.937 345.066,253.728 345.641,253.922 345.521 C 254.343 345.261,255.519 343.059,255.336 342.875 C 255.265 342.805,254.839 343.420,254.388 344.243 M231.499 347.059 C 232.207 347.789,232.872 348.387,232.976 348.387 C 233.081 348.387,232.587 347.789,231.879 347.059 C 231.170 346.328,230.506 345.731,230.401 345.731 C 230.297 345.731,230.791 346.328,231.499 347.059 M77.230 351.423 C 78.045 352.258,78.797 352.941,78.902 352.941 C 79.006 352.941,78.424 352.258,77.609 351.423 C 76.794 350.588,76.041 349.905,75.937 349.905 C 75.833 349.905,76.414 350.588,77.230 351.423 M98.672 351.613 C 97.750 352.552,97.081 353.321,97.185 353.321 C 97.290 353.321,98.129 352.552,99.051 351.613 C 99.973 350.674,100.642 349.905,100.538 349.905 C 100.433 349.905,99.594 350.674,98.672 351.613 M86.822 355.876 C 87.715 355.956,89.081 355.955,89.858 355.874 C 90.635 355.792,89.905 355.726,88.235 355.728 C 86.565 355.729,85.930 355.796,86.822 355.876 M184.612 357.590 L 183.112 359.203 184.725 357.703 C 186.225 356.308,186.512 355.977,186.225 355.977 C 186.163 355.977,185.437 356.703,184.612 357.590 M172.970 361.569 C 173.863 361.649,175.229 361.648,176.006 361.566 C 176.783 361.485,176.053 361.419,174.383 361.420 C 172.713 361.422,172.078 361.489,172.970 361.569 " stroke="none" fill="#8c8c8c" fill-rule="evenodd"></path></g></svg>